<svg width="40" height="40" viewBox="0 0 40 40" fill="none" xmlns="http://www.w3.org/2000/svg">
<path d="M28.75 21.6667C28.75 22.2192 28.5305 22.7491 28.1398 23.1398C27.7491 23.5305 27.2192 23.75 26.6667 23.75C26.1142 23.75 25.5843 23.5305 25.1936 23.1398C24.8029 22.7491 24.5834 22.2192 24.5834 21.6667C24.5834 21.1141 24.8029 20.5842 25.1936 20.1935C25.5843 19.8028 26.1142 19.5833 26.6667 19.5833C27.2192 19.5833 27.7491 19.8028 28.1398 20.1935C28.5305 20.5842 28.75 21.1141 28.75 21.6667ZM36.6667 20C36.6667 29.1667 29.1667 36.6667 20 36.6667H3.33337V20C3.33337 10.8333 10.8334 3.33333 20 3.33333C29.1667 3.33333 36.6667 10.8333 36.6667 20ZM11.6667 30C14.0167 32.05 16.6667 33.3333 20 33.3333C27.35 33.3333 33.3334 27.35 33.3334 20C33.3334 18.6833 33.1334 17.4167 32.7834 16.2333C31.5834 16.5167 30.3334 16.6667 29.0334 16.6667C25.7 16.6667 22.6167 15.6667 20 13.9833C20 13.9833 17.5667 22.9333 13.3834 21.6667C12.2834 21.3333 11.6667 22.1833 11.6667 23.3333" fill="#8C46B8"/>
</svg>
