<svg width="17" height="17" viewBox="0 0 17 17" fill="none" xmlns="http://www.w3.org/2000/svg">
<path d="M17 15.8888C17 16.0215 16.9253 16.1431 16.7759 16.2537C16.6265 16.3642 16.3968 16.4554 16.0869 16.5273C15.777 16.5992 15.4588 16.6655 15.1323 16.7263C14.8058 16.7872 14.388 16.8341 13.8789 16.8673C13.3698 16.9005 12.9271 16.9254 12.5508 16.9419C12.1745 16.9585 11.6903 16.9724 11.0981 16.9834C10.506 16.9945 10.0578 17 9.75342 17H7.24658L5.90186 16.9834L4.44922 16.9419L3.12109 16.8673L1.86768 16.7263L0.913086 16.5273L0.224121 16.2537L0 15.8888C0.0221354 14.9158 0.630859 14.0561 1.82617 13.3098C3.02148 12.5634 4.53776 12.0686 6.375 11.8254V11.278C5.79948 11.0237 5.30143 10.6644 4.88086 10.2C4.46029 9.73561 4.12826 9.19106 3.88477 8.56634C3.64128 7.94163 3.46419 7.27268 3.35352 6.55951C3.24284 5.84634 3.1875 5.07512 3.1875 4.24585C3.1875 3.53821 3.32585 2.90797 3.60254 2.35512C3.87923 1.80228 4.26107 1.35724 4.74805 1.02C5.23503 0.682764 5.79395 0.428455 6.4248 0.257073C7.05566 0.0856911 7.7474 0 8.5 0C9.2526 0 9.94434 0.0856911 10.5752 0.257073C11.2061 0.428455 11.765 0.682764 12.252 1.02C12.7389 1.35724 13.1208 1.80228 13.3975 2.35512C13.6742 2.90797 13.8125 3.53821 13.8125 4.24585C13.8125 8.11577 12.75 10.4709 10.625 11.3112V11.8254C12.4622 12.0686 13.9785 12.5634 15.1738 13.3098C16.3691 14.0561 16.9779 14.9158 17 15.8888Z" fill="white"/>
</svg>
