<svg width="121" height="42" viewBox="0 0 121 42" fill="none" xmlns="http://www.w3.org/2000/svg">
<path d="M8.53906 34.3281H22.6484V41H0.5V1.1875H8.53906V34.3281ZM53.5742 24.6758C53.5742 30.0169 52.3073 34.1641 49.7734 37.1172C47.2578 40.0703 43.7578 41.5469 39.2734 41.5469C34.8073 41.5469 31.2982 40.0885 28.7461 37.1719C26.194 34.237 24.8997 30.1354 24.8633 24.8672V18.0586C24.8633 12.5898 26.1302 8.32422 28.6641 5.26172C31.1979 2.18099 34.7161 0.640625 39.2188 0.640625C43.6484 0.640625 47.1393 2.15365 49.6914 5.17969C52.2435 8.1875 53.5378 12.4167 53.5742 17.8672V24.6758ZM45.5078 18.0039C45.5078 14.4128 44.9974 11.7422 43.9766 9.99219C42.9557 8.24219 41.3698 7.36719 39.2188 7.36719C37.0859 7.36719 35.5091 8.21484 34.4883 9.91016C33.4674 11.5872 32.9388 14.1484 32.9023 17.5938V24.6758C32.9023 28.1576 33.4219 30.7279 34.4609 32.3867C35.5 34.0273 37.1042 34.8477 39.2734 34.8477C41.3698 34.8477 42.9284 34.0456 43.9492 32.4414C44.9701 30.819 45.4896 28.3125 45.5078 24.9219V18.0039ZM86.4141 36.4883C84.8646 38.1654 82.9596 39.4323 80.6992 40.2891C78.457 41.1276 75.9961 41.5469 73.3164 41.5469C68.7409 41.5469 65.1862 40.1341 62.6523 37.3086C60.1185 34.4648 58.8151 30.3359 58.7422 24.9219V17.7578C58.7422 12.2708 59.9362 8.05078 62.3242 5.09766C64.7305 2.1263 68.2305 0.640625 72.8242 0.640625C77.1445 0.640625 80.3984 1.70703 82.5859 3.83984C84.7917 5.97266 86.0677 9.31771 86.4141 13.875H78.5938C78.375 11.3411 77.8464 9.61849 77.0078 8.70703C76.1693 7.77734 74.8568 7.3125 73.0703 7.3125C70.901 7.3125 69.3242 8.10547 68.3398 9.69141C67.3555 11.2773 66.8451 13.8021 66.8086 17.2656V24.4844C66.8086 28.112 67.3464 30.7552 68.4219 32.4141C69.5156 34.0547 71.3021 34.875 73.7812 34.875C75.3672 34.875 76.6523 34.556 77.6367 33.918L78.3477 33.4258V26.125H72.7148V20.0547H86.4141V36.4883ZM120.129 24.6758C120.129 30.0169 118.862 34.1641 116.328 37.1172C113.812 40.0703 110.312 41.5469 105.828 41.5469C101.362 41.5469 97.8529 40.0885 95.3008 37.1719C92.7487 34.237 91.4544 30.1354 91.418 24.8672V18.0586C91.418 12.5898 92.6849 8.32422 95.2188 5.26172C97.7526 2.18099 101.271 0.640625 105.773 0.640625C110.203 0.640625 113.694 2.15365 116.246 5.17969C118.798 8.1875 120.092 12.4167 120.129 17.8672V24.6758ZM112.062 18.0039C112.062 14.4128 111.552 11.7422 110.531 9.99219C109.51 8.24219 107.924 7.36719 105.773 7.36719C103.641 7.36719 102.064 8.21484 101.043 9.91016C100.022 11.5872 99.4935 14.1484 99.457 17.5938V24.6758C99.457 28.1576 99.9766 30.7279 101.016 32.3867C102.055 34.0273 103.659 34.8477 105.828 34.8477C107.924 34.8477 109.483 34.0456 110.504 32.4414C111.525 30.819 112.044 28.3125 112.062 24.9219V18.0039Z" fill="#8C46B8"/>
</svg>
